# xmcd
#
# Track frame offsets:
#	150
#	5999
#	17452
#	32826
#	52251
#	56570
#	69770
#	88013
#	99797
#	104071
#	120195
#	132194
#	144451
#	150816
#	165365
#	180424
#	185373
#	204122
#	221744
#	226783
#	244547
#	270046
#
# Disc length: 3731 seconds
#
# Revision: 0
# Processed by: cddbd v1.5.2PL0 Copyright (c) Steve Scherf et al.
# Submitted via: dBpowerAMP V4.0
#
DISCID=0c0e9116
DTITLE=Wienzeile - Gestalten gestalten
DYEAR=2009
DGENRE=Hip-Hop
TTITLE0=Intro
TTITLE1=Deine Party
TTITLE2=Schlagwörter
TTITLE3=Netlatscheg
TTITLE4=Intermezzo
TTITLE5=Begräbnis
TTITLE6=Alltagsgeschichten
TTITLE7=Klubkultur
TTITLE8=Intermezzo
TTITLE9=Duo Infernale
TTITLE10=Gummiboot
TTITLE11=Nur ein Gruß
TTITLE12=Intermezzo
TTITLE13=Synergie
TTITLE14=Hüttenzauber
TTITLE15=Intermezzo
TTITLE16=Geisterbahn
TTITLE17=Absturz
TTITLE18=Intermezzo
TTITLE19=Televisionen
TTITLE20=Zukunftsvisionen
TTITLE21=Outro
EXTD=
EXTT0=
EXTT1=
EXTT2=
EXTT3=
EXTT4=
EXTT5=
EXTT6=
EXTT7=
EXTT8=
EXTT9=
EXTT10=
EXTT11=
EXTT12=
EXTT13=
EXTT14=
EXTT15=
EXTT16=
EXTT17=
EXTT18=
EXTT19=
EXTT20=
EXTT21=
PLAYORDER=
